<?xml version="1.0" encoding="UTF-8" standalone="no"?>
<!-- Created with Inkscape (http://www.inkscape.org/) -->

<svg
   xmlns:dc="http://purl.org/dc/elements/1.1/"
   xmlns:cc="http://creativecommons.org/ns#"
   xmlns:rdf="http://www.w3.org/1999/02/22-rdf-syntax-ns#"
   xmlns:svg="http://www.w3.org/2000/svg"
   xmlns="http://www.w3.org/2000/svg"
   xmlns:xlink="http://www.w3.org/1999/xlink"
   xmlns:sodipodi="http://sodipodi.sourceforge.net/DTD/sodipodi-0.dtd"
   xmlns:inkscape="http://www.inkscape.org/namespaces/inkscape"
   width="266.12808mm"
   height="266.12808mm"
   viewBox="0 0 266.12808 266.12808"
   version="1.1"
   id="svg8"
   inkscape:version="0.92.3 (d244b95, 2018-08-02)"
   sodipodi:docname="caspian_feeds.svg">
  <defs
     id="defs2" />
  <sodipodi:namedview
     id="base"
     pagecolor="#ffffff"
     bordercolor="#666666"
     borderopacity="1.0"
     inkscape:pageopacity="0.0"
     inkscape:pageshadow="2"
     inkscape:zoom="0.175"
     inkscape:cx="1991.1898"
     inkscape:cy="613.12515"
     inkscape:document-units="mm"
     inkscape:current-layer="layer1"
     showgrid="false"
     inkscape:window-width="1680"
     inkscape:window-height="1022"
     inkscape:window-x="0"
     inkscape:window-y="0"
     inkscape:window-maximized="1"
     fit-margin-top="0"
     fit-margin-left="0"
     fit-margin-right="0"
     fit-margin-bottom="0" />
  <metadata
     id="metadata5">
    <rdf:RDF>
      <cc:Work
         rdf:about="">
        <dc:format>image/svg+xml</dc:format>
        <dc:type
           rdf:resource="http://purl.org/dc/dcmitype/StillImage" />
        <dc:title></dc:title>
      </cc:Work>
    </rdf:RDF>
  </metadata>
  <g
     inkscape:label="Layer 1"
     inkscape:groupmode="layer"
     id="layer1"
     transform="translate(-38.010635,107.22344)">
    <image
       sodipodi:absref="/home/aras/Projects/caspianacres.ca/static/images/caspian_acres_logo_square.png"
       y="-522.82257"
       x="256.18134"
       id="image4601"
       xlink:href="file:///home/aras/Projects/caspianacres.ca/static/images/caspian_acres_logo_square.png"
       preserveAspectRatio="none"
       height="285.32666"
       width="285.32666"
       transform="rotate(-7.1909255)" />
    <circle
       style="fill:#33bbbb;fill-opacity:1;stroke:#0a0a0a;stroke-width:5;stroke-miterlimit:4;stroke-dasharray:none;stroke-opacity:1"
       id="path4738"
       cx="171.07468"
       cy="25.840599"
       r="130.56404" />
    <path
       id="path823"
       d="m 227.24287,-507.62151 c -4.80641,-3.05376 -13.26032,-5.10259 -18.6038,-7.39487 -46.2001,-21.90235 -103.09237,-11.04797 -137.690609,29.82076 -41.24761,48.72321 -35.19091,121.65818 13.52858,162.91024 24.363189,20.62514 60.833379,17.59482 81.458509,-6.76834 20.62513,-24.36317 17.59488,-60.83337 -6.7683,-81.45851 -24.35454,-20.62737 -27.38002,-57.09075 -6.75822,-81.44998 14.29068,-16.88068 33.73184,-22.0083 53.93896,-17.63299 10.31394,3.19449 16.2016,5.0223 19.57196,6.13143 0,0 1.35944,-0.95716 1.60996,-1.71882 0.25052,-0.76166 -0.28704,-2.43892 -0.28704,-2.43892 z"
       inkscape:connector-curvature="0"
       style="fill:none;stroke:#000000;stroke-width:3.04201913;stroke-opacity:1"
       sodipodi:nodetypes="ccscscscczc" />
    <g
       id="g867">
      <g
         style="fill:#33bb33;fill-opacity:1;stroke:#0a0a0a;stroke-width:1.31491613;stroke-miterlimit:4;stroke-dasharray:none;stroke-opacity:1"
         transform="matrix(-2.5769476,-1.6165461,-1.6165461,2.5769476,172.28105,27.720822)"
         id="g863">
        <path
           inkscape:connector-curvature="0"
           id="path855"
           d="M 32.05222,18.331964 C 27.038726,27.981742 18.660969,35.528878 5.5061775,37.067138 -4.8812653,38.554698 -14.507836,31.33992 -15.995395,20.952484 -17.482955,10.565049 -11.204722,2.9156418 0.46016362,1.4960547 Z"
           style="fill:#33bb33;fill-opacity:1;stroke:#0a0a0a;stroke-width:1.31491613;stroke-miterlimit:4;stroke-dasharray:none;stroke-opacity:1" />
        <path
           sodipodi:nodetypes="ccccc"
           style="fill:#33bb33;fill-opacity:1;stroke:#0a0a0a;stroke-width:1.31491613;stroke-miterlimit:4;stroke-dasharray:none;stroke-opacity:1"
           inkscape:connector-curvature="0"
           d="M 35.905537,4.3810453 C 35.529873,11.068153 33.380642,17.363566 29.857061,22.736531 20.383387,40.411559 -21.043881,7.3469068 -2.6257581,1.4881457 2.5879638,0.79597746 9.5351016,-2.2217269 12.458506,-6.047352 Z"
           id="path857" />
        <path
           sodipodi:nodetypes="scccs"
           inkscape:connector-curvature="0"
           id="path859"
           d="m 5.7426858,-2.227981 c 6.7158202,-3.819371 8.0157852,-7.4360063 9.6330952,-11.474726 l 20.013454,2.567103 C 37.878131,-3.743989 37.503986,2.9722715 36.007612,8.847845 32.600995,20.733293 -0.9835883,1.5973353 5.7426858,-2.227981 Z"
           style="fill:#33bb33;fill-opacity:1;stroke:#0a0a0a;stroke-width:1.31491613;stroke-miterlimit:4;stroke-dasharray:none;stroke-opacity:1" />
        <path
           inkscape:connector-curvature="0"
           id="path861"
           d="m 13.989192,-11.492335 c 1.54406,-3.887935 2.775571,-6.820731 2.240405,-10.557725 -1.030696,-7.197217 -5.54878,-12.021262 -11.9402167,-14.332811 -3.43018835,-0.91215 -5.3890328,-1.431664 -6.5213372,-1.711565 0,0 -0.2113575,-0.50402 -0.1480696,-0.759885 0.063288,-0.255864 0.505983,-0.629028 0.505983,-0.629028 1.87190824,-0.01076 4.5839933,0.895497 6.4724375,1.190603 14.445231,1.706122 29.423072,12.437709 31.525235,25.580742 2.102163,13.14303284 -23.678497,5.1076045 -22.134437,1.219669 z"
           style="fill:#33bb33;fill-opacity:1;stroke:#0a0a0a;stroke-width:1.31491613;stroke-miterlimit:4;stroke-dasharray:none;stroke-opacity:1" />
      </g>
      <path
         id="path865"
         d="m 173.89801,-77.398248 c -0.0271,-0.25686 0.0601,-0.641652 0.0747,-0.904974 0.0419,-2.318742 1.63027,-4.411266 3.98844,-4.992712 2.81141,-0.693188 5.65247,1.023799 6.34592,3.835141 0.34661,1.40579 -0.51201,2.826392 -1.9178,3.17301 -1.40579,0.346618 -2.8264,-0.512002 -3.17301,-1.917801 -0.34689,-1.405481 -1.76731,-2.263779 -3.17288,-1.917218 -0.97404,0.240161 -1.57444,0.926608 -1.80421,1.835832 -0.0782,0.483467 -0.1227,0.759525 -0.1456,0.918823 0,0 -0.0663,0.036 -0.10236,0.03075 -0.0361,-0.0052 -0.0933,-0.06082 -0.0933,-0.06082 z"
         inkscape:connector-curvature="0"
         style="fill:none;stroke:#000000;stroke-width:3;stroke-linecap:round;stroke-linejoin:round;stroke-miterlimit:4;stroke-dasharray:none;stroke-opacity:1;paint-order:markers stroke fill"
         sodipodi:nodetypes="ccscscscczc" />
    </g>
    <g
       id="g853"
       transform="translate(-12.851193,288.77381)">
      <g
         id="g843"
         transform="matrix(-2.5769476,-1.6165461,-1.6165461,2.5769476,172.28105,27.720822)"
         style="fill:#33bb33;fill-opacity:1;stroke:#0a0a0a;stroke-width:1.31491613;stroke-miterlimit:4;stroke-dasharray:none;stroke-opacity:1">
        <path
           style="fill:#33bbbb;fill-opacity:1;stroke:#0a0a0a;stroke-width:1.31491613;stroke-miterlimit:4;stroke-dasharray:none;stroke-opacity:1"
           d="M 32.05222,18.331964 C 27.038726,27.981742 18.660969,35.528878 5.5061775,37.067138 -4.8812653,38.554698 -14.507836,31.33992 -15.995395,20.952484 -17.482955,10.565049 -11.204722,2.9156418 0.46016362,1.4960547 Z"
           id="path835"
           inkscape:connector-curvature="0" />
        <path
           id="path837"
           d="M 35.905537,4.3810453 C 35.529873,11.068153 33.380642,17.363566 29.857061,22.736531 20.383387,40.411559 -21.043881,7.3469068 -2.6257581,1.4881457 2.5879638,0.79597746 9.5351016,-2.2217269 12.458506,-6.047352 Z"
           inkscape:connector-curvature="0"
           style="fill:#33bb33;fill-opacity:1;stroke:#0a0a0a;stroke-width:1.31491613;stroke-miterlimit:4;stroke-dasharray:none;stroke-opacity:1"
           sodipodi:nodetypes="ccccc" />
        <path
           style="fill:#33bbbb;fill-opacity:1;stroke:#0a0a0a;stroke-width:1.31491613;stroke-miterlimit:4;stroke-dasharray:none;stroke-opacity:1"
           d="m 5.7426858,-2.227981 c 6.7158202,-3.819371 8.0157852,-7.4360063 9.6330952,-11.474726 l 20.013454,2.567103 C 37.878131,-3.743989 37.503986,2.9722715 36.007612,8.847845 32.600995,20.733293 -0.9835883,1.5973353 5.7426858,-2.227981 Z"
           id="path839"
           inkscape:connector-curvature="0"
           sodipodi:nodetypes="scccs" />
        <path
           style="fill:#33bb33;fill-opacity:1;stroke:#0a0a0a;stroke-width:1.31491613;stroke-miterlimit:4;stroke-dasharray:none;stroke-opacity:1"
           d="m 13.989192,-11.492335 c 1.54406,-3.887935 2.775571,-6.820731 2.240405,-10.557725 -1.030696,-7.197217 -5.54878,-12.021262 -11.9402167,-14.332811 -3.43018835,-0.91215 -5.3890328,-1.431664 -6.5213372,-1.711565 0,0 -0.2113575,-0.50402 -0.1480696,-0.759885 0.063288,-0.255864 0.505983,-0.629028 0.505983,-0.629028 1.87190824,-0.01076 4.5839933,0.895497 6.4724375,1.190603 14.445231,1.706122 29.423072,12.437709 31.525235,25.580742 2.102163,13.14303284 -23.678497,5.1076045 -22.134437,1.219669 z"
           id="path841"
           inkscape:connector-curvature="0" />
      </g>
      <path
         sodipodi:nodetypes="ccscscscczc"
         style="fill:none;stroke:#000000;stroke-width:3;stroke-linecap:round;stroke-linejoin:round;stroke-miterlimit:4;stroke-dasharray:none;stroke-opacity:1;paint-order:markers stroke fill"
         inkscape:connector-curvature="0"
         d="m 173.89801,-77.398248 c -0.0271,-0.25686 0.0601,-0.641652 0.0747,-0.904974 0.0419,-2.318742 1.63027,-4.411266 3.98844,-4.992712 2.81141,-0.693188 5.65247,1.023799 6.34592,3.835141 0.34661,1.40579 -0.51201,2.826392 -1.9178,3.17301 -1.40579,0.346618 -2.8264,-0.512002 -3.17301,-1.917801 -0.34689,-1.405481 -1.76731,-2.263779 -3.17288,-1.917218 -0.97404,0.240161 -1.57444,0.926608 -1.80421,1.835832 -0.0782,0.483467 -0.1227,0.759525 -0.1456,0.918823 0,0 -0.0663,0.036 -0.10236,0.03075 -0.0361,-0.0052 -0.0933,-0.06082 -0.0933,-0.06082 z"
         id="path845" />
    </g>
    <path
       style="font-style:normal;font-variant:normal;font-weight:normal;font-stretch:normal;font-size:266.9241333px;line-height:125%;font-family:Niconne;-inkscape-font-specification:Niconne;letter-spacing:0px;word-spacing:0px;fill:#550000;fill-opacity:1;stroke:none;stroke-width:0.91813749px;stroke-linecap:butt;stroke-linejoin:miter;stroke-opacity:1"
       d="m 412.88701,-38.223436 c -0.67394,0 -1.34761,0.01759 -2.02124,0.04884 -38.03753,0.846635 -70.5227,28.9508168 -86.70892,61.857194 -11.78882,24.269715 -15.12779,56.30758 2.34244,78.774102 14.18917,17.5401 42.1785,21.86018 61.6365,14.05345 13.32902,-5.34796 27.57455,-15.35982 35.16436,-22.904994 0.92196,5.21071 3.03249,10.174464 6.60819,14.323694 4.95386,4.90479 11.06083,7.3552 18.32712,7.3552 7.26765,0 13.22297,-2.89677 17.86094,-8.69345 2.67886,5.71003 8.11641,8.5629 16.31885,8.5629 0,0 8.54479,-0.27168 15.3383,-6.63701 0.59339,0.50286 1.23061,1.01389 1.95727,1.53942 3.95559,2.86142 9.32775,4.29449 16.10476,4.29449 6.78208,0 12.81854,-1.91113 18.11422,-5.72815 5.30209,-3.81583 7.94787,-8.733784 7.94787,-14.746786 -0.21198,-6.153413 -5.4279,-13.166214 -10.18587,-18.80887 -0.33881,-0.40177 -0.67583,-0.796 -1.00802,-1.183001 l -4.70191,-4.352 c -4.20028,-3.815753 -6.29748,-6.782604 -6.29748,-8.880201 0.0685,-2.862166 4.37025,-5.155343 7.59143,-4.439416 3.1594,0.702271 11.40508,6.649239 11.72405,6.879828 l 0.0508,0.126588 c 6.248,3.040888 11.2133,2.700985 14.85122,1.325254 -1.82875,18.936254 -4.34181,47.241344 -8.82926,85.898034 0,0 11.84647,2.87607 17.52275,-7.6919 l 2.97702,-28.40201 c 2.94439,0.62543 5.66175,0.93621 8.16078,0.93621 11.05483,0 20.02109,-3.05478 26.88995,-9.16233 6.8649,-6.10738 10.78959,-15.002022 11.76978,-26.688831 0.0921,-1.072104 0.13576,-2.096094 0.13576,-3.076306 0,-2.627573 -0.32471,-5.130007 -0.97017,-7.510506 5.13451,1.824014 8.6386,-0.03204 10.71874,-1.992462 l -3.46152,29.703681 c -0.0877,1.06697 -0.13069,2.09617 -0.13069,3.07637 0,4.637854 1.4477,8.425934 4.34939,11.370194 2.89512,2.94567 7.33234,4.4159 13.30918,4.4159 5.97144,0 11.10465,-2.18334 15.38264,-6.55471 1.05213,-1.07326 2.02817,-2.23046 2.92875,-3.47052 0.67664,0.88519 1.41234,1.73268 2.22106,2.53432 4.95386,4.90479 11.06065,7.3552 18.32836,7.3552 7.26631,0 13.22303,-2.89678 17.86093,-8.69346 2.67767,5.71004 8.11515,8.5629 16.31886,8.5629 4.28319,0 8.60509,-1.71471 12.97624,-5.14973 0.0941,-0.0742 0.18597,-0.15608 0.27945,-0.23246 l -0.55107,4.71241 h 18.06204 c 0.17874,-2.13901 1.8734,-15.427094 5.08449,-39.8689 0.53341,-3.831184 1.80704,-7.021357 3.81008,-9.563035 2.00951,-2.542931 4.4639,-3.811455 7.35902,-3.811455 2.89647,0 4.97102,0.800904 6.22304,2.406421 1.2456,1.605615 1.87243,3.615013 1.87243,6.020693 l -3.21209,29.830482 c 0,3.749684 1.34009,7.315824 4.01251,10.706884 2.6776,3.38602 6.77634,5.07933 12.30643,5.07933 11.688,0 19.89069,-7.8441 24.61667,-23.543425 -0.62148,-1.873552 -2.44903,-4.415623 -5.48141,-7.626718 -3.12429,12.666879 -7.71836,18.996853 -13.78315,18.996853 -2.76566,0 -4.14303,-2.05192 -4.14303,-6.149944 0,-2.232124 1.02397,-10.125372 3.07623,-23.680462 0.53349,-3.477821 0.7991,-5.840719 0.7991,-7.092737 0,-4.637928 -1.73591,-8.468389 -5.21371,-11.500781 -3.4791,-3.03237 -8.27497,-4.551742 -14.38252,-4.551742 -6.10747,0 -11.3496,2.141043 -15.72086,6.424241 -0.2667,-4.371241 -3.39176,-6.559986 -9.36331,-6.559986 -1.96422,0 -4.81577,0.495283 -8.5616,1.475495 l -4.73451,40.534657 c -1.18242,2.672249 -2.45518,4.846225 -3.82315,6.485525 -2.49765,2.988404 -4.86043,4.480024 -7.09264,4.480024 -2.85248,0 -4.27884,-1.77989 -4.27884,-5.350904 0,-2.67244 0.40367,-7.043353 1.20382,-13.106846 0.3535,-2.67891 0.9803,-7.201311 1.87241,-13.575504 0.89341,-6.380716 1.74077,-12.870065 2.54092,-19.466952 -1.51876,-0.89342 -3.98923,-1.33975 -7.42433,-1.33975 -3.43502,0 -6.35175,0.757107 -8.76393,2.275873 -3.74457,-1.518766 -7.84972,-2.275873 -12.30773,-2.275873 h -0.79909 c -10.52272,0 -19.22204,3.479756 -26.08697,10.436687 -6.86887,6.956835 -10.30343,16.27518 -10.30343,27.956696 0,2.860778 0.32071,5.519041 0.94923,7.983239 -0.16018,0.26058 -0.31601,0.52499 -0.4818,0.78077 -2.44969,3.793644 -5.12719,5.682564 -8.0236,5.682564 -2.90036,0 -4.52996,-1.15301 -4.88341,-3.477214 -0.17932,-0.88822 -0.26642,-1.93873 -0.26642,-3.14155 0,-1.20287 0.21807,-2.694384 0.66466,-4.479874 0,-0.266747 1.74113,-13.82711 5.22027,-40.669332 -1.87228,-0.625402 -4.03971,-0.936199 -6.48813,-0.936199 -2.45623,0 -4.9267,0.419898 -7.42559,1.269287 -2.49904,0.849349 -4.19107,2.073958 -5.0845,3.679439 -9.91415,7.869768 -22.49626,-1.363191 -22.49626,-1.363191 v 0 c -3.61651,-2.569907 -7.66687,-3.860974 -12.15229,-3.860974 -6.4235,0 -11.73073,1.475454 -15.92199,4.414647 -0.98022,-2.939193 -4.37085,-4.414647 -10.16892,-4.414647 -3.20589,0 -5.74796,0.359809 -7.62149,1.071928 -0.1235,1.106542 -0.25767,2.45049 -0.3865,3.676976 -6.97894,2.427343 -14.35262,-0.369302 -18.14685,-2.269405 l -0.0122,-0.05938 c -3.05823,-2.150672 -7.61524,-3.222521 -13.67482,-3.222521 -6.06615,0 -11.24455,1.312203 -15.53941,3.939387 -4.29354,2.621908 -6.445,6.321995 -6.445,11.093287 0,4.777817 3.86886,11.192817 11.60132,19.261975 7.73118,8.065195 11.59481,14.300727 11.59481,18.687501 0,3.05308 -1.91353,5.3188 -5.29601,5.01001 -16.31937,-1.46589 -12.45817,-14.756032 -19.89133,-11.016284 -0.0176,0.0157 -0.0281,0.026 -0.0448,0.0402 -0.12037,0.0715 -0.22615,0.15062 -0.31204,0.23777 -0.39345,0.39871 -0.77772,0.76454 -1.15685,1.11633 -0.085,0.0787 -0.18402,0.16801 -0.26641,0.24559 -6.27787,5.702814 -10.46662,5.162784 -10.46662,5.162784 -2.85238,0 -4.27882,-1.77981 -4.27882,-5.350844 0,-2.672443 0.40243,-7.04329 1.20388,-13.106764 0.35345,-2.678929 0.97893,-7.20133 1.8724,-13.575601 0.89215,-6.380716 1.74205,-12.870104 2.54222,-19.466992 -1.51876,-0.89344 -3.99052,-1.33967 -7.42435,-1.33967 -3.43502,0 -6.35314,0.757106 -8.764,2.275949 -3.74576,-1.518843 -7.8498,-2.275949 -12.309,-2.275949 h -0.80037 c -10.52149,0 -19.22066,3.479736 -26.08437,10.436667 -5.43651,5.685028 -9.14937,14.376426 -9.89869,23.343673 -0.95946,0.609816 -2.01413,1.298315 -3.30345,2.143973 -7.5243,4.935052 -21.4277,16.798368 -38.62709,18.465478 -17.20033,1.66711 -38.30371,-11.985293 -40.31105,-31.261566 -4.13857,-30.416973 12.10104,-61.38754 35.31315,-80.5955032 14.52161,-11.8267938 36.35365,-21.7710318 54.14814,-11.0973108 15.00991,10.2881248 10.57095,31.091391 2.9823,44.604734 -7.9774,13.635981 -20.49213,29.271985 -37.93118,28.463346 -10.28002,0.346683 -12.29378,-11.958576 -8.45588,-19.290711 6.12665,-16.201455 20.56502,-27.2035543 35.95827,-33.8638522 8.61775,-4.306991 10.63096,-12.0483378 -6.45677,-6.58212 -17.08782,5.46614101 -43.30568,22.0621002 -46.29828,46.2394172 -2.79351,15.225461 10.6336,30.842282 26.35339,28.92042 24.11772,-1.828898 42.70432,-21.984977 51.87753,-43.063914 8.33863,-17.5161983 8.94277,-42.053795 -7.34732,-55.271128 -7.72771,-6.610543 -17.79528,-9.965549 -27.90448,-9.94955 z m 244.2139,37.1072558 c -4.06578,-0.08713 -8.19406,1.09156001 -11.75673,3.63908 -8.76829,6.2706389 -19.68307,24.8199892 -13.41236,33.5883152 6.27062,8.769556 27.35313,4.437365 36.12148,-1.833254 8.76954,-6.270696 10.79357,-18.462458 4.52299,-27.2307453 -3.72324,-5.2069569 -9.5331,-8.03657589 -15.47538,-8.1633959 z M 460.88128,60.571198 c 2.40583,0 4.89889,0.532613 7.49098,1.604717 l -3.21206,28.894264 c -2.85762,7.942247 -7.09309,11.904291 -12.71121,11.904291 -3.29785,0 -5.99917,-1.28961 -8.09418,-3.875334 -2.09613,-2.58565 -3.14152,-6.06421 -3.14152,-10.43538 0,-0.712196 0.0455,-1.474381 0.13186,-2.274541 0.62543,-8.562431 2.61228,-15.002708 5.95412,-19.329898 3.34839,-4.32717 7.87079,-6.488119 13.58201,-6.488119 z m 226.96925,0 c 2.40577,0 4.89879,0.532613 7.48966,1.604717 l -3.21207,28.894264 c -2.85761,7.942247 -7.09314,11.904291 -12.70987,11.904291 -3.29917,0 -5.99916,-1.28961 -8.09545,-3.875334 -2.09504,-2.58565 -3.14028,-6.06421 -3.14028,-10.43538 0,-0.712196 0.0433,-1.474381 0.13069,-2.274541 0.62674,-8.562431 2.61222,-15.002708 5.95537,-19.329898 3.34698,-4.32717 7.87213,-6.488119 13.58207,-6.488119 z m -105.15212,1.735307 c 3.74447,0 6.50452,1.519408 8.29003,4.550452 1.78549,3.032429 2.67796,6.510798 2.67796,10.43528 0,8.115769 -1.78622,14.714024 -5.35082,19.797379 -2.94564,4.104444 -6.68983,6.157754 -11.24091,6.157754 -2.58579,0 -4.7692,-0.66933 -6.55471,-2.00814 -1.78549,-1.338784 -2.62725,-3.341844 -2.54092,-6.020696 0.26675,-2.139022 1.29466,-9.810333 3.0815,-23.01075 2.67252,-6.596887 6.55319,-9.901279 11.63787,-9.901279 z m 19.67064,68.026615 c -10.03335,0 -10.92361,5.97558 -10.92361,11.59354 v 18.90683 c 0,0.98148 0.48894,1.51584 1.33704,1.51584 h 4.99438 c 0.89203,0 1.33706,-0.44612 1.33706,-1.33824 v -3.87936 c 0,-0.89087 0.49156,-1.33704 1.33966,-1.33704 h 3.83355 c 0.89215,0 1.33706,0.44617 1.33706,1.33704 v 3.87936 c 0,0.89212 0.49155,1.33824 1.33838,1.33824 h 4.99305 c 0.89214,0 1.33972,-0.53436 1.33972,-1.51584 v -18.90683 c 0,-5.61796 -0.89295,-11.59354 -10.92629,-11.59354 z m 25.90808,0 c -10.56803,0 -11.19265,7.89189 -11.19265,10.83497 v 11.14823 c 0,2.94306 0.62462,10.8361 11.19265,10.8361 9.49857,0 10.96956,-6.3771 11.14824,-9.76552 0.0441,-0.66926 -0.35659,-1.15908 -0.98193,-1.29257 l -5.03742,-1.11641 c -0.89208,-0.22135 -1.60596,0.35783 -1.74053,1.29394 -0.26675,2.05091 -0.936,3.2108 -3.38836,3.2108 -3.29911,0 -3.52281,-2.09462 -3.52281,-5.52971 v -6.42156 c 0,-3.43382 0.22361,-5.52836 3.52281,-5.52836 2.4083,0 3.21013,1.15895 3.434,3.12193 0.13459,0.93608 0.84619,1.56016 1.78232,1.38138 l 4.94999,-1.11504 c 0.62534,-0.13343 1.02598,-0.62412 0.98193,-1.24819 -0.17875,-3.43377 -1.64967,-9.80999 -11.14824,-9.80999 z m 74.82689,0.0893 c -9.988,0 -10.79146,7.89258 -10.74738,9.23019 0,10.256 13.42208,9.40972 14.2702,13.19939 0.26799,1.2043 -1.33855,2.49663 -3.52282,2.49663 -2.09496,0 -3.74628,-1.2468 -3.92371,-3.38837 -0.0905,-0.93473 -0.58079,-1.33812 -1.47158,-1.15944 l -5.04005,1.11512 c -0.80284,0.17854 -1.20226,0.66867 -1.15814,1.47149 0.2226,3.4764 2.22818,9.63092 11.59348,9.63092 10.56804,0 12.08436,-7.89128 12.08436,-9.23008 0,-10.25594 -14.09136,-10.16701 -14.7154,-13.6447 -0.17876,-1.02548 0.89211,-2.05133 2.63104,-2.05133 2.09624,0 3.56718,1.15916 3.87927,2.98744 0.13343,0.89204 0.57941,1.29381 1.47156,1.11519 l 5.08315,-1.11519 c 0.80404,-0.17873 1.2034,-0.66879 1.1595,-1.4702 -0.26676,-3.21108 -2.40704,-9.18706 -11.59348,-9.18706 z m -59.21831,0.71293 c -0.80284,0 -1.38277,0.58006 -1.38277,1.38277 v 28.44896 c 0,0.80276 0.57993,1.38268 1.38277,1.38268 h 4.99437 c 0.80285,0 1.38281,-0.57992 1.38281,-1.38268 v -7.04431 c 0,-0.80282 0.57986,-1.38271 1.38272,-1.38271 h 1.78229 c 0.13341,0 0.26835,0.0882 0.35645,0.2221 l 4.63791,8.96234 c 0.17873,0.40276 0.57962,0.62535 1.025,0.62535 h 5.08314 c 1.38313,0 2.09703,-1.24766 1.47293,-2.40769 l -4.72807,-8.78471 c -0.0878,-0.22287 -0.0429,-0.44525 0.13578,-0.57853 2.36302,-1.69489 3.38838,-4.5933 3.38838,-8.74051 0,-7.31422 -3.21117,-10.70301 -11.14827,-10.70301 z m 26.39773,0 c -0.84684,0 -1.33708,0.44751 -1.33708,1.3384 v 28.53777 c 0,0.84808 0.49024,1.33824 1.33708,1.33824 h 18.72919 c 0.89211,0 1.33709,-0.44609 1.33709,-1.33824 v -4.99436 c 0,-0.89088 -0.44498,-1.33712 -1.33709,-1.33712 H 678.2222 c -0.84808,0 -1.33705,-0.49018 -1.33705,-1.33699 v -1.42711 c 0,-0.89081 0.48897,-1.33711 1.33705,-1.33711 h 6.91116 c 0.8909,0 1.33835,-0.49157 1.33835,-1.33835 v -4.9943 c 0,-0.89087 -0.44745,-1.33845 -1.33835,-1.33845 h -6.91116 c -0.84808,0 -1.33705,-0.49025 -1.33705,-1.33699 v -1.42717 c 0,-0.89229 0.48897,-1.33714 1.33705,-1.33714 h 10.79043 c 0.89211,0 1.33709,-0.49162 1.33709,-1.33833 v -4.99435 c 0,-0.89089 -0.44498,-1.3384 -1.33709,-1.3384 z m -67.91439,7.58104 c 2.94299,0 3.25514,1.07176 3.25514,3.21073 v 4.81549 c 0,0.89094 -0.44491,1.33738 -1.33706,1.3815 h -3.83355 c -0.8481,0 -1.33966,-0.49032 -1.33966,-1.33711 v -4.85988 c 0,-2.13897 0.31333,-3.21073 3.25513,-3.21073 z m 49.27656,0.0898 h 2.27325 c 2.14036,0 3.20947,0.26612 3.20947,3.03189 0,2.76429 -1.06911,3.03311 -3.20947,3.03311 h -2.27325 c -0.80286,0 -1.38272,-0.58242 -1.38272,-1.38405 v -3.29954 c 0,-0.80275 0.57986,-1.38141 1.38272,-1.38141 z"
       id="path4311-9-5"
       inkscape:connector-curvature="0" />
    <text
       xml:space="preserve"
       style="font-style:normal;font-weight:normal;font-size:3.96875px;line-height:0%;font-family:sans-serif;letter-spacing:0px;word-spacing:0px;fill:#000000;fill-opacity:1;stroke:none;stroke-width:0.33072916px;stroke-linecap:butt;stroke-linejoin:miter;stroke-opacity:1"
       x="39.893982"
       y="-142.61545"
       id="text4357"><tspan
         sodipodi:role="line"
         id="tspan4359"
         x="39.893982"
         y="-142.61545"
         style="font-style:normal;font-variant:normal;font-weight:normal;font-stretch:normal;font-size:29.765625px;line-height:125%;font-family:Niconne;-inkscape-font-specification:'Niconne, Normal';text-align:start;writing-mode:lr-tb;text-anchor:start;stroke-width:0.33072916px">Caspian Acres in Niconne Font</tspan></text>
  </g>
</svg>
